<!DOCTYPE svg PUBLIC "-//W3C//DTD SVG 1.1//EN" "http://www.w3.org/Graphics/SVG/1.1/DTD/svg11.dtd">
<!-- Uploaded to: SVG Repo, www.svgrepo.com, Transformed by: SVG Repo Mixer Tools -->
<svg fill="#ffffff" height="800px" width="800px" version="1.1" id="Layer_1" xmlns="http://www.w3.org/2000/svg" xmlns:xlink="http://www.w3.org/1999/xlink" viewBox="0 0 512.009 512.009" xml:space="preserve">
<g id="SVGRepo_bgCarrier" stroke-width="0"/>
<g id="SVGRepo_tracerCarrier" stroke-linecap="round" stroke-linejoin="round"/>
<g id="SVGRepo_iconCarrier"> <g> <g> <path d="M511.871,372.126c-0.768-6.741-4.672-12.736-10.581-16.128l-122.048-70.144c-8.363-4.8-18.901-3.435-25.728,3.413 l-27.712,27.712l-22.912-22.933l62.741-62.763c20.629,9.685,42.133,14.784,62.677,14.784c26.539,0,51.2-8.619,70.4-25.536 c1.067-0.683,2.048-1.579,3.029-2.432c0.512-0.512,1.152-0.832,1.664-1.344c0.021-0.021,0.043-0.064,0.064-0.107 c31.936-32.192-37.269-108.331-68.523-139.584C403.711,45.833,327.594-23.351,295.381,8.521c-0.043,0.043-0.085,0.043-0.128,0.085 v0.021h-0.021c-33.877,33.92-37.717,88.448-14.549,137.771l-62.72,62.72l-22.933-22.912l27.733-27.712 c6.805-6.805,8.192-17.344,3.413-25.728L156.01,10.697c-3.392-5.888-9.387-9.792-16.128-10.56s-13.44,1.728-18.048,6.741 L5.674,132.723c-7.723,8.363-7.531,21.312,0.448,29.419l90.496,92.053c3.989,4.053,9.451,6.357,15.125,6.379h0.085 c5.675,0,11.093-2.261,15.083-6.251l37.952-37.952l22.933,22.912l-36.288,36.288c-4.011,3.989-6.251,9.429-6.251,15.083 s2.24,11.072,6.251,15.083l12.288,12.288l-50.88,50.901c-8.32,8.32-8.32,21.824,0,30.165c4.16,4.16,9.621,6.251,15.083,6.251 c5.461,0,10.923-2.091,15.083-6.251l50.901-50.901l12.288,12.309c4.16,4.16,9.621,6.251,15.083,6.251 c5.461,0,10.923-2.091,15.083-6.251l36.288-36.288l22.912,22.933l-37.952,37.952c-4.011,4.011-6.272,9.472-6.251,15.168 c0.021,5.696,2.325,11.115,6.379,15.125l92.053,90.496c4.139,4.075,9.536,6.123,14.955,6.123c5.184,0,10.368-1.877,14.464-5.653 l125.867-116.181C510.122,385.587,512.618,378.867,511.871,372.126z M309.461,84.382c3.755,5.525,7.723,11.008,11.883,16.363 c0.683,0.896,1.365,1.728,2.048,2.603c4.245,5.355,8.576,10.581,12.864,15.552c0.64,0.704,1.216,1.365,1.835,2.069 c4.395,5.013,8.725,9.771,12.8,14.123c0.384,0.405,0.704,0.725,1.088,1.131c4.245,4.48,8.256,8.597,11.733,12.075 c3.435,3.435,7.488,7.36,11.883,11.541c1.429,1.344,3.029,2.773,4.544,4.181c3.2,2.965,6.443,5.931,9.963,9.045 c2.069,1.813,4.181,3.584,6.336,5.419c3.307,2.837,6.635,5.589,10.112,8.384c2.432,1.941,4.821,3.776,7.296,5.675 c3.477,2.645,6.955,5.141,10.517,7.637c1.685,1.173,3.307,2.496,4.992,3.627c-26.987,0.085-58.347-12.736-83.392-37.76 c-25.024-25.024-38.144-56.213-37.76-83.392C308.607,83.251,309.077,83.806,309.461,84.382z"/> </g> </g> </g>
</svg>